<?xml version="1.0" encoding="UTF-8"?>
<svg xmlns="http://www.w3.org/2000/svg" xml:space="preserve" width="800" height="250" viewBox="690 1025 1150 370" style="shape-rendering:geometricPrecision; text-rendering:geometricPrecision; image-rendering:optimizeQuality; fill-rule:evenodd; clip-rule:evenodd">
 <defs>
  <style type="text/css">
    .fil2 {fill:#00345C}
    .fil7 {fill:#00345C}
    .fil5 {fill:#DB9833}
    .fil6 {fill:#DB9833}
    .fil1 {fill:#00345C;fill-rule:nonzero}
    .fil4 {fill:#00345C;fill-rule:nonzero}
    .fil3 {fill:#6BA630;fill-rule:nonzero}
  </style>
 </defs>
 <g>
  <path class="fil1" d="M788 1249l0 0c0,-17 -11,-24 -30,-29 -17,-4 -21,-6 -21,-12l0 -1c0,-4 4,-8 12,-8 9,0 17,4 26,9l11 -16c-10,-7 -22,-12 -36,-12 -20,0 -34,12 -34,29l0 1c0,19 12,24 32,29 16,4 19,7 19,12l0 1c0,5 -5,9 -14,9 -11,0 -20,-5 -28,-12l-13 15c12,10 26,15 41,15 21,0 35,-10 35,-30z"/>
  <path class="fil1" d="M905 1230l0 0c0,-28 -21,-50 -51,-50 -30,0 -51,22 -51,50l0 0c0,27 21,50 51,50 30,0 51,-23 51,-50zm-22 0c0,17 -12,30 -29,30 -17,0 -29,-14 -29,-30l0 0c0,-17 12,-31 29,-31 17,0 29,14 29,31l0 0z"/>
  <polygon class="fil1" points="993,1278 993,1259 945,1259 945,1182 924,1182 924,1278 "/>
  <path class="fil2" d="M1038 1192l-37 86 22 0 8 -22 34 0c-2,-6 -4,-12 -6,-18l-20 0 10 -25c-3,-7 -7,-14 -11,-21z"/>
  <path class="fil1" d="M1202 1278l-24 -34c12,-5 21,-15 21,-30l0 -1c0,-19 -14,-31 -37,-31l-44 0 0 96 21 0 0 -31 17 0 21 31 25 0zm-25 -63c0,8 -6,13 -16,13l-22 0 0 -27 21 0c11,0 17,4 17,13l0 1z"/>
  <path class="fil3" d="M1305 1262l-13 -13c-8,7 -15,11 -26,11 -16,0 -28,-14 -28,-30l0 0c0,-17 12,-31 28,-31 10,0 17,5 25,11l13 -15c-9,-9 -19,-15 -38,-15 -29,0 -50,22 -50,50l0 0c0,28 21,50 50,50 18,0 29,-7 39,-18zm90 16l0 -19 -52 0 0 -20 46 0 0 -19 -46 0 0 -20 52 0 0 -18 -73 0 0 96 73 0zm105 0l0 -96 -21 0 0 59 -45 -59 -20 0 0 96 21 0 0 -61 47 61 18 0zm96 -77l0 -19 -80 0 0 19 30 0 0 77 21 0 0 -77 29 0zm90 77l0 -19 -52 0 0 -20 45 0 0 -19 -45 0 0 -20 51 0 0 -18 -73 0 0 96 74 0zm102 0l-23 -34c12,-5 20,-15 20,-30l0 -1c0,-19 -13,-31 -36,-31l-44 0 0 96 21 0 0 -31 17 0 20 31 25 0zm-24 -63c0,8 -6,13 -17,13l-21 0 0 -27 21 0c10,0 17,4 17,13l0 1z"/>
  <path class="fil4" d="M1225 1351l16 0c8,0 13,-3 13,-9l0 0c0,-5 -3,-7 -7,-9 3,-1 5,-3 5,-7l0 -1c0,-2 -1,-4 -2,-5 -2,-2 -5,-3 -9,-3l-16 0 0 34zm6 -20l0 -9 9 0c4,0 6,2 6,4l0 0c0,4 -3,5 -6,5l-9 0zm0 15l0 -10 10 0c5,0 7,2 7,5l0 0c0,3 -3,5 -7,5l-10 0zm55 5l6 0 0 -14 14 -20 -7 0 -10 15 -9 -15 -8 0 14 21 0 13zm57 0l12 0c11,0 19,-7 19,-17l0 0c0,-10 -8,-17 -19,-17l-12 0 0 34zm6 -5l0 -24 6 0c8,0 12,5 12,12l0 0c0,7 -4,12 -12,12l-6 0zm63 6c9,0 15,-6 15,-16l0 -19 -6 0 0 19c0,7 -4,10 -9,10 -6,0 -9,-3 -9,-10l0 -19 -6 0 0 19c0,10 6,16 15,16zm39 -1l7 0 0 -12 7 0 9 12 7 0 -10 -13c5,-1 9,-5 9,-10l0 0c0,-3 -1,-6 -3,-8 -2,-2 -6,-3 -10,-3l-16 0 0 34zm7 -17l0 -12 8 0c5,0 7,2 7,6l0 0c0,3 -2,6 -7,6l-8 0zm43 17l6 0 3 -8 17 0 3 8 7 0 -16 -35 -5 0 -15 35zm12 -14l6 -13 6 13 -12 0zm43 2l14 0 0 -6 -14 0 0 6zm38 12l6 0 0 -14 17 0 0 -5 -17 0 0 -10 19 0 0 -5 -25 0 0 34zm65 1c10,0 18,-8 18,-18l0 0c0,-10 -7,-18 -18,-18 -11,0 -18,8 -18,18l0 0c0,10 7,18 18,18zm0 -6c-7,0 -12,-5 -12,-12l0 0c0,-7 5,-12 12,-12 7,0 12,5 12,12l0 0c0,7 -5,12 -12,12zm37 5l6 0 4 -8 16 0 3 8 7 0 -15 -35 -6 0 -15 35zm12 -14l6 -13 6 13 -12 0zm46 14l6 0 0 -25 11 17 0 0 11 -17 0 25 6 0 0 -34 -6 0 -11 16 -10 -16 -7 0 0 34z"/>
  <path class="fil5" d="M893 1089c109,0 198,83 207,189l-24 0c-12,-103 -95,-183 -196,-183 -50,0 -96,20 -131,52 37,-36 88,-58 144,-58z"/>
  <g>
   <path class="fil6" d="M924 1044l12 38c-5,-1 -11,-2 -17,-3 -5,0 -11,-1 -16,-1l21 -34z"/>
   <path class="fil6" d="M988 1061l2 40c-5,-3 -10,-5 -15,-7 -5,-3 -11,-4 -16,-6l29 -27z"/>
   <path class="fil6" d="M1046 1094l-8 39c-4,-4 -9,-8 -13,-11 -5,-4 -9,-7 -14,-10l35 -18z"/>
   <path class="fil6" d="M1093 1140l-17 36c-4,-5 -7,-10 -10,-14 -4,-5 -8,-9 -11,-13l38 -9z"/>
   <path class="fil6" d="M857 1045l22 33c-5,0 -11,1 -17,2 -5,1 -11,2 -17,3l12 -38z"/>
   <path class="fil6" d="M793 1063l30 26c-5,2 -11,4 -16,6 -5,2 -10,5 -15,7l1 -39z"/>
   <path class="fil6" d="M736 1096l35 18c-4,3 -9,7 -13,10 -5,4 -9,7 -13,11l-9 -39z"/>
  </g>
  <polygon class="fil7" points="714,1331 1201,1331 1201,1336 714,1336 "/>
 </g>
</svg>
