<?xml version="1.0" encoding="UTF-8"?>
<!DOCTYPE svg PUBLIC "-//W3C//DTD SVG 1.1//EN" "http://www.w3.org/Graphics/SVG/1.1/DTD/svg11.dtd">
<!-- Creator: CorelDRAW X7 -->
<svg xmlns="http://www.w3.org/2000/svg" xml:space="preserve" width="2480px" height="3508px" version="1.1" style="shape-rendering:geometricPrecision; text-rendering:geometricPrecision; image-rendering:optimizeQuality; fill-rule:evenodd; clip-rule:evenodd"
viewBox="0 0 2480 3507"
 xmlns:xlink="http://www.w3.org/1999/xlink">
 <defs>
  <style type="text/css">
   <![CDATA[
    .fil2 {fill:#00345C}
    .fil6 {fill:#00345C}
    .fil4 {fill:#DB9833}
    .fil5 {fill:#DB9833}
    .fil0 {fill:white}
    .fil1 {fill:#00345C;fill-rule:nonzero}
    .fil3 {fill:#00345C;fill-rule:nonzero}
   ]]>
  </style>
 </defs>
 <g id="Layer_x0020_1">
  <metadata id="CorelCorpID_0Corel-Layer"/>
  <rect class="fil0" x="267" y="266" width="2000" height="2000"/>
  <path class="fil1" d="M805 1287l0 0c0,-17 -11,-24 -31,-29 -16,-5 -21,-7 -21,-13l0 0c0,-5 5,-9 13,-9 8,0 16,4 25,10l11 -16c-10,-8 -22,-13 -36,-13 -20,0 -34,12 -34,30l0 0c0,19 13,24 32,29 17,4 20,7 20,13l0 0c0,6 -5,9 -14,9 -11,0 -20,-5 -29,-12l-12 15c11,11 26,16 40,16 21,0 36,-11 36,-30z"/>
  <path class="fil1" d="M922 1267l0 0c0,-28 -22,-50 -51,-50 -30,0 -52,23 -52,50l0 0c0,28 22,50 51,50 30,0 52,-22 52,-50zm-22 0c0,17 -12,30 -29,30 -17,0 -30,-13 -30,-30l0 0c0,-17 12,-30 29,-30 17,0 30,14 30,30l0 0z"/>
  <polygon class="fil1" points="1010,1315 1010,1296 962,1296 962,1219 941,1219 941,1315 "/>
  <path class="fil2" d="M1054 1229l-36 86 22 0 8 -21 34 0c-2,-7 -4,-13 -6,-19l-20 0 10 -25c-3,-7 -7,-14 -12,-21z"/>
  <path class="fil1" d="M1219 1315l-24 -34c12,-5 21,-14 21,-30l0 0c0,-20 -14,-32 -37,-32l-44 0 0 96 21 0 0 -31 17 0 21 31 25 0zm-25 -63c0,8 -6,14 -16,14l-22 0 0 -28 22 0c10,0 16,5 16,14l0 0z"/>
  <path class="fil3" d="M1322 1300l-7 -7c-9,9 -18,14 -31,14 -21,0 -37,-18 -37,-40 0,-23 16,-40 37,-40 13,0 22,6 30,13l8 -8c-10,-9 -20,-15 -38,-15 -28,0 -49,23 -49,50 0,28 21,50 49,50 17,0 28,-7 38,-17zm89 -81l-70 0 0 96 71 0 0 -10 -60 0 0 -33 53 0 0 -10 -53 0 0 -33 59 0 0 -10zm94 77l-61 -77 -10 0 0 96 10 0 0 -79 63 79 8 0 0 -96 -10 0 0 77zm74 -67l33 0 0 -10 -76 0 0 10 32 0 0 86 11 0 0 -86zm123 -10l-70 0 0 96 71 0 0 -10 -60 0 0 -33 53 0 0 -10 -53 0 0 -33 59 0 0 -10zm103 96l-30 -39c15,-3 26,-12 26,-28 0,-18 -14,-29 -35,-29l-41 0 0 96 11 0 0 -37 27 0 28 37 14 0zm-15 -67c0,13 -10,20 -25,20l-29 0 0 -39 29 0c16,0 25,7 25,19z"/>
  <path class="fil3" d="M1242 1388l15 0c8,0 13,-3 13,-9l0 0c0,-5 -3,-7 -7,-8 3,-2 5,-4 5,-8l0 0c0,-2 -1,-4 -2,-6 -2,-2 -5,-3 -9,-3l-15 0 0 34zm5 -19l0 -10 9 0c4,0 6,2 6,5l0 0c0,3 -2,5 -6,5l-9 0zm0 14l0 -9 10 0c5,0 7,1 7,4l0 0c0,4 -2,5 -7,5l-10 0zm55 5l6 0 0 -13 14 -21 -7 0 -10 15 -9 -15 -7 0 13 21 0 13zm57 0l13 0c10,0 18,-7 18,-17l0 0c0,-9 -8,-17 -18,-17l-13 0 0 34zm6 -5l0 -23 7 0c7,0 11,5 11,11l0 0c0,7 -4,12 -11,12l-7 0zm63 6c9,0 15,-5 15,-15l0 -20 -6 0 0 20c0,6 -4,9 -9,9 -5,0 -9,-3 -9,-9l0 -20 -6 0 0 20c0,10 6,15 15,15zm40 -1l6 0 0 -11 7 0 9 11 7 0 -10 -13c5,-1 9,-4 9,-10l0 0c0,-3 -1,-6 -3,-7 -2,-3 -6,-4 -10,-4l-15 0 0 34zm6 -17l0 -11 8 0c5,0 8,2 8,5l0 0c0,4 -3,6 -8,6l-8 0zm43 17l6 0 3 -8 17 0 3 8 7 0 -16 -34 -5 0 -15 34zm12 -13l6 -14 6 14 -12 0zm43 1l14 0 0 -5 -14 0 0 5zm38 12l6 0 0 -14 17 0 0 -5 -17 0 0 -9 19 0 0 -6 -25 0 0 34zm65 1c10,0 18,-8 18,-18l0 0c0,-9 -8,-17 -18,-17 -11,0 -18,8 -18,17l0 0c0,10 7,18 18,18zm0 -5c-7,0 -12,-6 -12,-13l0 0c0,-6 5,-12 12,-12 7,0 12,6 12,12l0 0c0,7 -5,13 -12,13zm37 4l6 0 3 -8 17 0 3 8 7 0 -16 -34 -5 0 -15 34zm12 -13l6 -14 6 14 -12 0zm46 13l6 0 0 -24 11 16 0 0 11 -16 0 24 6 0 0 -34 -7 0 -10 16 -10 -16 -7 0 0 34z"/>
  <path class="fil3" d="M740 1450l4 0 0 -9 9 -14 -4 0 -7 10 -6 -10 -5 0 9 14 0 9zm41 1c7,0 12,-6 12,-12l0 -1c0,-6 -5,-11 -12,-11 -7,0 -12,5 -12,12l0 0c0,6 4,12 12,12zm0 -4c-5,0 -8,-4 -8,-8l0 -1c0,-4 3,-8 8,-8 4,0 8,4 8,9l0 0c0,4 -4,8 -8,8zm41 4c6,0 10,-4 10,-11l0 -13 -4 0 0 13c0,5 -2,7 -6,7 -4,0 -6,-3 -6,-7l0 -13 -4 0 0 13c0,7 4,11 10,11zm30 -1l4 0 0 -8 5 0 6 8 5 0 -7 -9c4,-1 6,-3 6,-7l0 0c0,-2 -1,-4 -2,-5 -1,-1 -4,-2 -7,-2l-10 0 0 23zm4 -12l0 -7 6 0c3,0 5,1 5,3l0 1c0,2 -2,3 -5,3l-6 0zm45 12l17 0 0 -3 -13 0 0 -7 11 0 0 -3 -11 0 0 -6 13 0 0 -4 -17 0 0 23zm36 0l4 0 0 -16 13 16 4 0 0 -23 -4 0 0 16 -13 -16 -4 0 0 23zm41 0l18 0 0 -3 -14 0 0 -7 12 0 0 -3 -12 0 0 -6 13 0 0 -4 -17 0 0 23zm37 0l4 0 0 -8 5 0 6 8 5 0 -7 -9c4,-1 6,-3 6,-7l0 0c0,-2 -1,-4 -2,-5 -2,-1 -4,-2 -7,-2l-10 0 0 23zm4 -12l0 -7 6 0c3,0 5,1 5,3l0 1c0,2 -2,3 -5,3l-6 0zm45 13c5,0 8,-2 10,-4l0 -10 -10 0 0 4 6 0 0 4c-1,1 -3,2 -5,2 -5,0 -8,-4 -8,-8l0 -1c0,-4 3,-8 7,-8 3,0 5,1 7,3l2 -3c-2,-2 -5,-3 -9,-3 -7,0 -12,5 -12,12l0 0c0,6 5,12 12,12zm36 -1l4 0 0 -9 9 -14 -4 0 -7 10 -7 -10 -4 0 9 14 0 9zm41 0l4 0 0 -4 -4 0 0 4zm43 1c6,0 10,-4 10,-11l0 -13 -4 0 0 13c0,5 -2,7 -6,7 -3,0 -6,-3 -6,-7l0 -13 -4 0 0 13c0,7 4,11 10,11zm30 -1l4 0 0 -16 13 16 4 0 0 -23 -4 0 0 16 -13 -16 -4 0 0 23zm41 0l9 0c7,0 12,-5 12,-11l0 -1c0,-6 -5,-11 -12,-11l-9 0 0 23zm4 -4l0 -15 5 0c5,0 8,3 8,8l0 0c0,4 -3,7 -8,7l-5 0zm37 4l17 0 0 -3 -13 0 0 -7 11 0 0 -3 -11 0 0 -6 13 0 0 -4 -17 0 0 23zm37 0l4 0 0 -8 5 0 5 8 5 0 -6 -9c3,-1 6,-3 6,-7l0 0c0,-2 -1,-4 -2,-5 -2,-1 -4,-2 -7,-2l-10 0 0 23zm4 -12l0 -7 6 0c3,0 4,1 4,3l0 1c0,2 -1,3 -4,3l-6 0zm51 12l4 0 0 -9 9 -14 -4 0 -7 10 -7 -10 -4 0 9 14 0 9zm40 1c8,0 13,-6 13,-12l0 -1c0,-6 -5,-11 -12,-11 -8,0 -13,5 -13,12l0 0c0,6 5,12 12,12zm1 -4c-5,0 -8,-4 -8,-8l0 -1c0,-4 3,-8 7,-8 5,0 8,4 8,9l0 0c0,4 -3,8 -7,8zm41 4c6,0 10,-4 10,-11l0 -13 -4 0 0 13c0,5 -3,7 -6,7 -4,0 -6,-3 -6,-7l0 -13 -4 0 0 13c0,7 4,11 10,11zm30 -1l4 0 0 -8 5 0 6 8 5 0 -7 -9c4,-1 6,-3 6,-7l0 0c0,-2 -1,-4 -2,-5 -2,-1 -4,-2 -7,-2l-10 0 0 23zm4 -12l0 -7 6 0c3,0 5,1 5,3l0 1c0,2 -2,3 -5,3l-6 0zm55 13c5,0 7,-2 10,-5l-3 -2c-2,2 -4,3 -7,3 -4,0 -7,-4 -7,-8l0 -1c0,-4 3,-8 7,-8 3,0 5,1 7,3l2 -3c-2,-2 -4,-3 -9,-3 -7,0 -12,5 -12,12l0 0c0,6 5,12 12,12zm39 0c7,0 12,-6 12,-12l0 -1c0,-6 -5,-11 -12,-11 -7,0 -12,5 -12,12l0 0c0,6 5,12 12,12zm0 -4c-5,0 -8,-4 -8,-8l0 -1c0,-4 3,-8 8,-8 4,0 8,4 8,9l0 0c0,4 -3,8 -8,8zm32 3l4 0 0 -16 12 16 4 0 0 -23 -4 0 0 16 -13 -16 -3 0 0 23zm46 0l4 0 0 -19 8 0 0 -4 -19 0 0 4 7 0 0 19zm30 0l4 0 0 -8 6 0 5 8 5 0 -6 -9c3,-1 5,-3 5,-7l0 0c0,-2 0,-4 -2,-5 -1,-1 -3,-2 -6,-2l-11 0 0 23zm4 -12l0 -7 6 0c3,0 5,1 5,3l0 1c0,2 -2,3 -5,3l-6 0zm46 13c7,0 12,-6 12,-12l0 -1c0,-6 -5,-11 -12,-11 -7,0 -12,5 -12,12l0 0c0,6 5,12 12,12zm0 -4c-5,0 -8,-4 -8,-8l0 -1c0,-4 3,-8 8,-8 5,0 8,4 8,9l0 0c0,4 -3,8 -8,8zm32 3l16 0 0 -4 -12 0 0 -19 -4 0 0 23z"/>
  <path class="fil4" d="M910 1126c109,0 198,83 207,189l-24 0c-12,-103 -95,-183 -197,-183 -50,0 -96,20 -131,52 38,-36 89,-58 145,-58z"/>
  <g id="_948086784">
   <path class="fil5" d="M941 1082l12 37c-5,-1 -11,-2 -16,-2 -6,-1 -12,-2 -17,-2l21 -33z"/>
   <path class="fil5" d="M1005 1098l3 40c-5,-3 -11,-5 -16,-7 -5,-2 -11,-4 -16,-6l29 -27z"/>
   <path class="fil5" d="M1063 1131l-8 39c-4,-4 -9,-7 -13,-11 -5,-3 -9,-7 -14,-10l35 -18z"/>
   <path class="fil5" d="M1110 1178l-17 35c-4,-5 -7,-9 -10,-14 -4,-4 -8,-9 -11,-13l38 -8z"/>
   <path class="fil5" d="M875 1082l21 33c-5,1 -11,1 -17,2 -5,1 -11,2 -16,3l12 -38z"/>
   <path class="fil5" d="M811 1100l29 26c-5,2 -10,4 -16,6 -5,3 -10,5 -15,8l2 -40z"/>
   <path class="fil5" d="M753 1134l36 18c-5,3 -9,6 -14,9 -4,4 -9,8 -13,11l-9 -38z"/>
  </g>
  <polygon class="fil6" points="731,1369 1217,1369 1217,1374 731,1374 "/>
 </g>
</svg>
